<svg width="614" height="543" viewBox="0 0 614 543" fill="none" xmlns="http://www.w3.org/2000/svg">
<g clip-path="url(#clip0_66_2)">
<path d="M375.76 13.9828L373.346 10.2452C374.062 8.26402 374.889 6.32489 375.823 4.43702L377.384 5.70011L376.148 3.78647C377.326 1.46356 378.253 0 378.253 0C378.253 0 383.095 7.64322 384.712 15.7356L381.614 20.5318L385.044 17.7569C385.166 18.6996 385.229 19.649 385.232 20.5996C385.232 30.1837 382.107 37.9532 378.253 37.9532C374.398 37.9532 371.273 30.1837 371.273 20.5996C371.345 17.5504 371.884 14.5302 372.87 11.6444L375.76 13.9828Z" fill="#E6E6E6"/>
<path d="M358.671 22.2916L354.325 21.3588C353.433 19.4508 352.649 17.4938 351.977 15.4974L353.972 15.2847L351.747 14.8071C350.94 12.3301 350.563 10.6387 350.563 10.6387C350.563 10.6387 359.382 12.6136 366.239 17.19L367.434 22.7758L367.9 18.3843C368.652 18.9644 369.366 19.5912 370.04 20.2611C376.805 27.0381 380.08 34.7453 377.354 37.4756C374.629 40.206 366.935 36.9255 360.169 30.1485C358.068 27.9411 356.316 25.4241 354.976 22.6852L358.671 22.2916Z" fill="#E6E6E6"/>
<path d="M357.083 59.3775C367.161 60.0232 378.141 59.34 389.821 59.3775V32.5886C379.529 34.1937 368.552 34.0288 357.083 32.5886V59.3775Z" fill="#E6E6E6"/>
<path d="M284.991 80.2662L283.416 77.8288C283.883 76.5368 284.422 75.2722 285.031 74.041L286.05 74.8647L285.243 73.6168C286.012 72.1019 286.616 71.1475 286.616 71.1475C288.556 74.3221 289.978 77.7862 290.829 81.4093L288.808 84.5371L291.045 82.7275C291.125 83.3422 291.166 83.9614 291.168 84.5813C291.168 90.8315 289.13 95.8983 286.616 95.8983C284.102 95.8983 282.065 90.8315 282.065 84.5813C282.112 82.5928 282.463 80.6232 283.106 78.7413L284.991 80.2662Z" fill="#E6E6E6"/>
<path d="M273.846 85.6848L271.012 85.0765C270.43 83.8322 269.919 82.556 269.481 81.254L270.782 81.1153L269.331 80.8039C268.805 79.1885 268.559 78.0854 268.559 78.0854C272.171 78.9564 275.622 80.3986 278.781 82.3578L279.561 86.0006L279.865 83.1367C280.355 83.515 280.821 83.9238 281.26 84.3607C285.672 88.7802 287.808 93.8064 286.03 95.587C284.253 97.3675 279.235 95.2281 274.823 90.8086C273.453 89.3691 272.311 87.7277 271.437 85.9415L273.846 85.6848Z" fill="#E6E6E6"/>
<path d="M272.811 109.87C279.383 110.291 286.543 109.846 294.161 109.87V92.3999C287.079 93.3936 279.893 93.3936 272.811 92.3999V109.87Z" fill="#E6E6E6"/>
<path d="M276.869 161.644C282.672 162.016 288.995 161.623 295.721 161.644V146.218C289.467 147.095 283.122 147.095 276.869 146.218V161.644Z" fill="#E6E6E6"/>
<path d="M243.758 57.4934H497.436V64.5914H243.758V57.4934Z" fill="#E6E6E6"/>
<path d="M243.758 107.889H497.436V114.987H243.758V107.889Z" fill="#E6E6E6"/>
<path d="M243.758 158.285H497.436V165.383H243.758V158.285Z" fill="#E6E6E6"/>
<path d="M286.274 151.896C278.447 151.896 272.102 145.541 272.102 137.701C272.102 129.86 278.447 123.505 286.274 123.505C294.1 123.505 300.445 129.86 300.445 137.701C300.445 145.541 294.1 151.896 286.274 151.896Z" fill="#E6E6E6"/>
<path d="M286.274 149.057C280.012 149.057 274.936 143.973 274.936 137.7C274.936 131.428 280.012 126.344 286.274 126.344C292.535 126.344 297.611 131.428 297.611 137.7C297.611 143.973 292.535 149.057 286.274 149.057Z" fill="white"/>
<path d="M286.274 140.54C284.708 140.54 283.439 139.269 283.439 137.701C283.439 136.132 284.708 134.861 286.274 134.861C287.839 134.861 289.108 136.132 289.108 137.701C289.108 139.269 287.839 140.54 286.274 140.54Z" fill="#E6E6E6"/>
<path d="M276.353 138.41V136.991H287.691V138.41H276.353Z" fill="#E6E6E6"/>
<path d="M286.982 139.12H285.565V127.763H286.982V139.12Z" fill="#E6E6E6"/>
<path d="M368.218 73.2627H377.595V110.442H368.218V73.2627Z" fill="#E6E6E6"/>
<path d="M368.218 79.1333H377.595V83.4383H368.218V79.1333Z" fill="#CCCCCC"/>
<path d="M368.218 97.9187H377.595V102.224H368.218V97.9187Z" fill="#CCCCCC"/>
<path d="M382.674 73.2627H392.051V110.442H382.674V73.2627Z" fill="#E6E6E6"/>
<path d="M382.674 79.1333H392.051V83.4383H382.674V79.1333Z" fill="#CCCCCC"/>
<path d="M382.674 97.9187H392.051V102.224H382.674V97.9187Z" fill="#CCCCCC"/>
<path d="M360.138 73.1091L368.542 77.2766L352.073 110.596L343.67 106.429L360.138 73.1091Z" fill="#E6E6E6"/>
<path d="M357.538 78.3701L365.942 82.5376L364.035 86.3957L355.631 82.2282L357.538 78.3701Z" fill="#CCCCCC"/>
<path d="M349.217 95.2053L357.621 99.3728L355.714 103.231L347.31 99.0634L349.217 95.2053Z" fill="#CCCCCC"/>
<path d="M451.832 123.658H461.209V160.838H451.832V123.658Z" fill="#E6E6E6"/>
<path d="M451.832 129.529H461.209V133.834H451.832V129.529Z" fill="#CCCCCC"/>
<path d="M451.832 148.314H461.209V152.619H451.832V148.314Z" fill="#CCCCCC"/>
<path d="M466.288 123.658H475.665V160.838H466.288V123.658Z" fill="#E6E6E6"/>
<path d="M466.288 129.529H475.665V133.834H466.288V129.529Z" fill="#CCCCCC"/>
<path d="M466.288 148.314H475.665V152.619H466.288V148.314Z" fill="#CCCCCC"/>
<path d="M443.753 123.505L452.156 127.672L435.688 160.992L427.284 156.824L443.753 123.505Z" fill="#E6E6E6"/>
<path d="M441.153 128.766L449.556 132.933L447.649 136.791L439.246 132.624L441.153 128.766Z" fill="#CCCCCC"/>
<path d="M432.832 145.601L441.235 149.768L439.328 153.626L430.925 149.459L432.832 145.601Z" fill="#CCCCCC"/>
<path d="M363.966 123.658H373.343V160.838H363.966V123.658Z" fill="#E6E6E6"/>
<path d="M363.966 129.529H373.343V133.834H363.966V129.529Z" fill="#CCCCCC"/>
<path d="M363.966 148.314H373.343V152.619H363.966V148.314Z" fill="#CCCCCC"/>
<path d="M378.422 123.658H387.799V160.838H378.422V123.658Z" fill="#E6E6E6"/>
<path d="M378.422 129.529H387.799V133.834H378.422V129.529Z" fill="#CCCCCC"/>
<path d="M378.422 148.314H387.799V152.619H378.422V148.314Z" fill="#CCCCCC"/>
<path d="M355.887 123.505L364.29 127.672L347.822 160.992L339.418 156.824L355.887 123.505Z" fill="#E6E6E6"/>
<path d="M353.287 128.766L361.69 132.933L359.783 136.791L351.38 132.624L353.287 128.766Z" fill="#CCCCCC"/>
<path d="M344.966 145.601L353.369 149.768L351.462 153.626L343.059 149.459L344.966 145.601Z" fill="#CCCCCC"/>
<path d="M263.598 22.7556H300.866V60.0867H263.598V22.7556Z" fill="#E6E6E6"/>
<path d="M271.052 30.2219H293.413V52.6206H271.052V30.2219Z" fill="#CCCCCC"/>
<path d="M286.94 37.7402L282.199 45.9661L277.458 54.192H286.94H296.423L291.681 45.9661L286.94 37.7402Z" fill="#E6E6E6"/>
<path d="M278.702 39.3123L273.96 47.5381L269.219 55.764H278.702H288.184L283.443 47.5381L278.702 39.3123Z" fill="#E6E6E6"/>
<path d="M275.367 36.9021C273.851 36.9021 272.621 35.6705 272.621 34.1514C272.621 32.6322 273.851 31.4006 275.367 31.4006C276.884 31.4006 278.113 32.6322 278.113 34.1514C278.113 35.6705 276.884 36.9021 275.367 36.9021Z" fill="#E6E6E6"/>
<path d="M452.085 22.7556H489.353V60.0867H452.085V22.7556Z" fill="#E6E6E6"/>
<path d="M459.539 30.2219H481.9V52.6206H459.539V30.2219Z" fill="#CCCCCC"/>
<path d="M475.427 37.7402L470.686 45.9661L465.944 54.192H475.427H484.91L480.169 45.9661L475.427 37.7402Z" fill="#E6E6E6"/>
<path d="M467.188 39.3123L462.447 47.5381L457.706 55.764H467.188H476.671L471.93 47.5381L467.188 39.3123Z" fill="#E6E6E6"/>
<path d="M463.854 36.9021C462.338 36.9021 461.108 35.6705 461.108 34.1514C461.108 32.6322 462.338 31.4006 463.854 31.4006C465.371 31.4006 466.6 32.6322 466.6 34.1514C466.6 35.6705 465.371 36.9021 463.854 36.9021Z" fill="#E6E6E6"/>
<path d="M564.247 277.317L561.833 273.58C562.549 271.599 563.376 269.659 564.31 267.772L565.871 269.035L564.635 267.121C565.813 264.798 566.74 263.334 566.74 263.334C566.74 263.334 571.582 270.978 573.199 279.07L570.101 283.866L573.531 281.091C573.653 282.034 573.716 282.983 573.719 283.934C573.719 293.518 570.594 301.288 566.74 301.288C562.885 301.288 559.76 293.518 559.76 283.934C559.832 280.885 560.371 277.865 561.357 274.979L564.247 277.317Z" fill="#6258BB"/>
<path d="M547.158 285.626L542.812 284.693C541.92 282.785 541.136 280.828 540.464 278.832L542.459 278.619L540.234 278.142C539.428 275.665 539.05 273.973 539.05 273.973C539.05 273.973 547.869 275.948 554.726 280.524L555.921 286.11L556.387 281.719C557.139 282.299 557.853 282.926 558.527 283.596C565.292 290.373 568.567 298.08 565.842 300.81C563.116 303.54 555.422 300.26 548.656 293.483C546.555 291.276 544.804 288.759 543.464 286.02L547.158 285.626Z" fill="#6258BB"/>
<path d="M545.571 322.712C555.648 323.357 566.628 322.674 578.308 322.712V295.923C568.016 297.528 557.039 297.363 545.571 295.923V322.712Z" fill="#3F3D56"/>
<path d="M129.319 331.12H265.37V507.859H129.319V331.12Z" fill="#E6E6E6"/>
<path d="M542.432 340.347H549.518V507.859H542.432V340.347Z" fill="#E6E6E6"/>
<path d="M129.319 319.053H614V333.249H129.319V319.053Z" fill="#E6E6E6"/>
<path d="M538.889 333.249H553.061V347.445H538.889V333.249Z" fill="#E6E6E6"/>
<path d="M186.627 341.412L187.424 344.606H207.265L208.461 341.412H258.993V374.063H135.697V341.412H186.627Z" fill="#3F3D56"/>
<path d="M186.627 382.58L187.424 385.774H207.265L208.461 382.58H258.993V415.231H135.697V382.58H186.627Z" fill="#3F3D56"/>
<path d="M186.627 423.749L187.424 426.942H207.265L208.461 423.749H258.993V456.399H135.697V423.749H186.627Z" fill="#3F3D56"/>
<path d="M186.627 464.917L187.424 468.111H207.265L208.461 464.917H258.993V497.567H135.697V464.917H186.627Z" fill="#3F3D56"/>
<path d="M351.11 316.924H392.917L391.501 298.469H352.528L351.11 316.924Z" fill="#E6E6E6"/>
<path d="M348.276 314.795H395.043V319.053H348.276V314.795Z" fill="#E6E6E6"/>
<path d="M291.942 179.578H451.731C452.859 179.578 453.94 180.027 454.737 180.826C455.535 181.624 455.983 182.708 455.983 183.837V281.434H287.691V183.837C287.691 182.708 288.139 181.624 288.936 180.826C289.733 180.027 290.815 179.578 291.942 179.578Z" fill="#3F3D56"/>
<path d="M455.983 281.434V297.405C455.983 298.534 455.535 299.617 454.737 300.416C453.94 301.215 452.859 301.664 451.731 301.664H291.942C290.815 301.664 289.733 301.215 288.936 300.416C288.139 299.617 287.691 298.534 287.691 297.405V281.434H455.983Z" fill="#E6E6E6"/>
<path d="M295.84 188.451H447.479V273.626H295.84V188.451Z" fill="white"/>
<path d="M371.66 295.63C369.311 295.63 367.408 293.723 367.408 291.371C367.408 289.019 369.311 287.113 371.66 287.113C374.008 287.113 375.911 289.019 375.911 291.371C375.911 293.723 374.008 295.63 371.66 295.63Z" fill="#3F3D56"/>
<path d="M12.0462 506.795C27.5322 507.787 44.4059 506.737 62.3566 506.795V465.626C46.539 468.093 29.671 467.84 12.0462 465.626V506.795Z" fill="#3F3D56"/>
<path d="M35.4299 469.323H39.6816L38.2642 386.129H36.8474L35.4299 469.323Z" fill="#3F3D56"/>
<path d="M16.2976 469.886H20.5494L19.1319 386.691H17.7151L16.2976 469.886Z" fill="#3F3D56"/>
<path d="M52.4363 469.886H56.688L55.2706 386.691H53.8538L52.4363 469.886Z" fill="#3F3D56"/>
<path d="M31.8869 332.895L25.0237 322.27C27.059 316.638 29.4098 311.126 32.0649 305.759L36.5029 309.35L32.9889 303.91C36.3378 297.306 38.9729 293.146 38.9729 293.146C38.9729 293.146 52.7374 314.873 57.336 337.877L48.5288 351.512L58.2787 343.623C58.626 346.303 58.8046 349.002 58.8136 351.704C58.8136 378.949 49.9306 401.035 38.9729 401.035C28.0151 401.035 19.1322 378.949 19.1322 351.704C19.1322 343.258 21.0397 334.422 23.6711 326.248L31.8869 332.895Z" fill="#E6E6E6"/>
<path d="M12.7548 334.314L5.89153 323.689C7.92686 318.057 10.2777 312.545 12.9328 307.178L17.3708 310.769L13.8568 305.329C17.2057 298.726 19.8407 294.565 19.8407 294.565C19.8407 294.565 33.6052 316.293 38.2038 339.297L29.3967 352.931L39.1466 345.043C39.4938 347.722 39.6725 350.421 39.6815 353.124C39.6815 380.368 30.7985 402.454 19.8407 402.454C8.88299 402.454 -1.52588e-05 380.368 -1.52588e-05 353.124C-1.52588e-05 344.677 1.90757 335.841 4.53895 327.667L12.7548 334.314Z" fill="#6258BB"/>
<path d="M48.8933 334.314L42.03 323.689C44.0654 318.057 46.4162 312.545 49.0713 307.178L53.5093 310.769L49.9953 305.329C53.3441 298.726 55.9792 294.565 55.9792 294.565C55.9792 294.565 69.7437 316.293 74.3423 339.297L65.5352 352.931L75.285 345.043C75.6323 347.722 75.811 350.421 75.8199 353.124C75.8199 380.368 66.937 402.454 55.9792 402.454C45.0215 402.454 36.1385 380.368 36.1385 353.124C36.1385 344.677 38.046 335.841 40.6774 327.667L48.8933 334.314Z" fill="#6258BB"/>
<path d="M357.418 212.494H398.305V214.845H357.418V212.494Z" fill="#3F3D56"/>
<path d="M335.167 221.07H398.305V223.421H335.167V221.07Z" fill="#6258BB"/>
<path d="M346.849 229.149H398.305V231.5H346.849V229.149Z" fill="#6258BB"/>
<path d="M368.266 237.199H398.305V239.55H368.266V237.199Z" fill="#3F3D56"/>
<path d="M352.968 245.248H398.305V247.599H352.968V245.248Z" fill="#3F3D56"/>
<path d="M411.934 211.658H416.94V216.673H411.934V211.658Z" fill="#3F3D56"/>
<path d="M411.934 219.738H416.94V224.753H411.934V219.738Z" fill="#6258BB"/>
<path d="M411.934 227.817H416.94V232.832H411.934V227.817Z" fill="#6258BB"/>
<path d="M411.934 235.897H416.94V240.912H411.934V235.897Z" fill="#3F3D56"/>
<path d="M411.934 243.977H416.94V248.992H411.934V243.977Z" fill="#3F3D56"/>
<path d="M302.865 208.043H324.321C325.785 199.564 325.785 190.897 324.321 182.418H302.865C305.282 190.788 305.282 199.673 302.865 208.043Z" fill="#6258BB"/>
<path d="M458.985 259.403L467.812 257.248C471.18 257.252 474.507 256.506 477.553 255.064C480.598 253.622 483.285 251.52 485.42 248.91C487.554 246.3 489.083 243.247 489.895 239.972C490.707 236.698 490.782 233.283 490.115 229.976C490.125 222.085 487.005 214.513 481.442 208.927C475.878 203.34 468.327 200.195 460.449 200.186C452.572 200.176 445.013 203.301 439.435 208.874C433.858 214.446 430.719 222.01 430.709 229.901C425.704 247.347 441.379 263.702 458.985 259.403Z" fill="#2F2E41"/>
<path d="M449.343 262.514C437.289 262.514 427.518 252.726 427.518 240.652C427.518 228.578 437.289 218.79 449.343 218.79C461.397 218.79 471.168 228.578 471.168 240.652C471.168 252.726 461.397 262.514 449.343 262.514Z" fill="#FFB8B8"/>
<path d="M463.577 252.058C463.577 252.058 470.219 274.87 474.015 276.771C477.81 278.672 443.649 281.524 443.649 281.524C443.649 281.524 444.598 259.662 442.701 257.761C440.803 255.86 463.577 252.058 463.577 252.058Z" fill="#FFB8B8"/>
<path d="M429.416 392.735C429.416 392.735 386.714 388.933 381.021 403.191C375.327 417.449 384.817 502.045 384.817 502.045H402.846V432.657C402.846 432.657 479.721 410.768 479.721 403.164C479.721 395.56 429.416 392.735 429.416 392.735Z" fill="#2F2E41"/>
<path d="M387.663 498.243L378.174 502.045C378.174 502.045 366.787 501.095 371.532 509.649C372.89 512.133 374.79 514.277 377.09 515.923C379.39 517.568 382.031 518.673 384.817 519.155C384.817 519.155 402.846 525.808 403.795 519.155C404.744 512.501 399.05 499.194 399.05 499.194L387.663 498.243Z" fill="#2F2E41"/>
<path d="M453.139 392.735C453.139 392.735 410.437 388.933 404.744 403.191C399.05 417.449 408.54 502.045 408.54 502.045H426.569V432.657C426.569 432.657 481.138 419.996 481.138 412.392C481.138 408.819 484.856 390.664 478.304 386.839C470.908 382.522 453.139 392.735 453.139 392.735Z" fill="#2F2E41"/>
<path d="M411.386 498.243L401.897 502.045C401.897 502.045 390.51 501.095 395.255 509.649C396.613 512.133 398.513 514.277 400.813 515.923C403.113 517.568 405.754 518.673 408.54 519.155C408.54 519.155 426.569 525.808 427.518 519.155C428.467 512.501 422.773 499.194 422.773 499.194L411.386 498.243Z" fill="#2F2E41"/>
<path d="M473.066 273.92L444.549 277.025C440.148 277.504 436.01 279.364 432.728 282.339C429.445 285.314 427.184 289.252 426.269 293.591L415.182 346.159C415.182 346.159 411.386 398.438 418.978 401.29C426.569 404.141 437.007 389.883 451.241 391.785C465.475 393.686 483.978 397.963 483.978 397.963C483.978 397.963 486.917 304.386 487.3 296.732C488.065 281.431 473.066 273.92 473.066 273.92Z" fill="#575A89"/>
<path d="M405.516 395.451L393.809 402.357C393.809 402.357 372.806 399.338 373.462 406.733C374.117 414.128 397.044 412.699 397.044 412.699L411.153 403.991L405.516 395.451Z" fill="#FFB8B8"/>
<path d="M491.705 222.871C483.919 222.871 477.607 216.548 477.607 208.749C477.607 200.949 483.919 194.627 491.705 194.627C499.492 194.627 505.804 200.949 505.804 208.749C505.804 216.548 499.492 222.871 491.705 222.871Z" fill="#2F2E41"/>
<path d="M478.697 201.157C478.699 199.068 479.163 197.006 480.057 195.118C480.951 193.231 482.252 191.566 483.866 190.243C485.48 188.92 487.367 187.973 489.391 187.469C491.415 186.966 493.525 186.918 495.57 187.33C493.766 186.477 491.802 186.016 489.807 185.98C487.812 185.943 485.832 186.331 483.998 187.119C482.165 187.906 480.519 189.074 479.169 190.546C477.82 192.018 476.798 193.761 476.171 195.658C475.544 197.555 475.327 199.564 475.533 201.552C475.739 203.54 476.365 205.461 477.368 207.189C478.371 208.916 479.728 210.411 481.351 211.573C482.974 212.736 484.825 213.54 486.781 213.933C484.362 212.792 482.317 210.984 480.886 208.722C479.454 206.459 478.695 203.836 478.697 201.157Z" fill="#2F2E41"/>
<path d="M466.603 209.166L447.596 205.661L432.98 214.837C429.386 217.093 426.514 220.334 424.703 224.176C422.893 228.018 422.221 232.299 422.766 236.512L437.405 232.795L440.683 224.562L444.587 230.972L465 257.286L476.461 249.975L486.678 233.936L466.603 209.166Z" fill="#2F2E41"/>
<path d="M450.951 282.005L441.462 277.253C441.462 277.253 421.535 280.104 417.739 293.412C413.943 306.719 396.863 398.92 396.863 398.92L412.994 406.524L435.768 350.443L450.951 282.005Z" fill="#575A89"/>
<path opacity="0.2" d="M442.873 319.409L433.376 356.335L416.535 397.806L417.118 399.242L437.205 357.028L442.873 319.409Z" fill="black"/>
<path d="M513.736 523.051L517.085 521.895L484.64 425.361L479.95 426.979L513.736 523.051Z" fill="#3F3D56"/>
<path d="M389.727 523.051L386.377 521.895L418.823 425.361L423.512 426.979L389.727 523.051Z" fill="#3F3D56"/>
<path d="M458.285 542.988L454.742 543L453.641 430.154L458.601 430.136L458.285 542.988Z" fill="#3F3D56"/>
<path d="M521.936 368.639L512.218 407.984C510.857 413.494 508.023 418.528 504.021 422.547C500.019 426.565 495 429.416 489.503 430.792C462.4 437.58 434.023 437.396 407.01 430.26L392.5 426.427C384.069 424.199 377.729 416.946 377.129 408.233C376.886 405.152 377.443 402.061 378.746 399.26C378.802 399.14 378.859 399.02 378.916 398.902C380.809 395.008 383.728 391.707 387.358 389.356C390.989 387.004 395.192 385.692 399.513 385.561L414.884 385.065L470.863 360.222C470.863 360.222 490.116 350.426 505.943 349.329C516.396 348.605 524.453 358.451 521.936 368.639Z" fill="#6258BB"/>
<path d="M180.692 244.88H235.963V320.118H180.692V244.88Z" fill="#E6E6E6"/>
<path d="M187.07 253.561H229.586V311.437H187.07V253.561Z" fill="white"/>
<path d="M192.253 268.707H212.853V271.058H192.253V268.707Z" fill="#3F3D56"/>
<path d="M219.396 267.405H224.402V272.42H219.396V267.405Z" fill="#3F3D56"/>
<path d="M192.253 278.644H212.853V280.995H192.253V278.644Z" fill="#3F3D56"/>
<path d="M219.396 277.342H224.402V282.357H219.396V277.342Z" fill="#3F3D56"/>
<path d="M192.253 288.581H212.853V290.932H192.253V288.581Z" fill="#3F3D56"/>
<path d="M219.396 287.279H224.402V292.294H219.396V287.279Z" fill="#3F3D56"/>
<path d="M206.202 249.138C206.202 247.962 207.154 247.009 208.328 247.009C209.502 247.009 210.454 247.962 210.454 249.138C210.454 250.314 209.502 251.268 208.328 251.268C207.154 251.268 206.202 250.314 206.202 249.138Z" fill="#3F3D56"/>
</g>
<defs>
<clipPath id="clip0_66_2">
<rect width="614" height="543" fill="white" transform="matrix(-1 0 0 1 614 0)"/>
</clipPath>
</defs>
</svg>
