<svg width="50" height="48" viewBox="0 0 50 48" fill="none" xmlns="http://www.w3.org/2000/svg">
<path d="M1.26398 9.67405V17.8637L14.4853 17.74L27.6814 17.6163L31.0436 20.8823L34.3805 24.1235L37.768 20.8081L41.1302 17.5173L44.1385 17.5668C45.807 17.6163 47.2985 17.6163 47.4754 17.5916C47.7029 17.5668 47.7788 15.7854 47.7788 9.5256V1.48436H24.5214H1.26398V9.67405ZM43.734 9.64931V13.8555H41.5347H39.3101L36.8832 16.305L34.4563 18.7545L31.9536 16.305L29.4509 13.8555H17.3925H5.30874V9.64931V5.44312H24.5214H43.734V9.64931Z" fill="#161616"/>
<path d="M11.2495 27.4639L7.96312 30.6804H4.62619H1.26398V38.8453V47.0103H24.5214H47.7788V38.8453V30.6804H34.4563H21.1086L17.8222 27.4639L14.5359 24.2474L11.2495 27.4639ZM31.6756 34.6391H43.734V38.8453V43.0515H24.5214H5.30874V38.8453V34.6391H7.38169H9.42935L11.9826 32.1649L14.5359 29.7154L17.0638 32.1649L19.5918 34.6391H31.6756Z" fill="#161616"/>
</svg>
